<?xml version="1.0" encoding="utf-8"?>
<!-- Generator: Adobe Illustrator 16.0.3, SVG Export Plug-In . SVG Version: 6.00 Build 0)  -->
<!DOCTYPE svg PUBLIC "-//W3C//DTD SVG 1.1//EN" "http://www.w3.org/Graphics/SVG/1.1/DTD/svg11.dtd" [
	<!ENTITY st0 "fill:#FFFFFF;">
]>
<svg version="1.1" id="Calque_1" xmlns="http://www.w3.org/2000/svg" xmlns:xlink="http://www.w3.org/1999/xlink" x="0px" y="0px"
	 width="114px" height="60px" viewBox="0 0 114 60" style="enable-background:new 0 0 114 60;" xml:space="preserve">
<g>
	<g>
		<path style="&st0;" d="M100.6,13.933c1.641,0,2.967-1.328,2.967-2.967C103.566,9.327,102.24,8,100.6,8
			c-1.639,0-2.965,1.327-2.965,2.966C97.635,12.605,98.961,13.933,100.6,13.933z M100.6,8.479c1.352,0,2.439,1.111,2.439,2.487
			c0,1.375-1.088,2.487-2.439,2.487c-1.35,0-2.438-1.112-2.438-2.487C98.162,9.59,99.25,8.479,100.6,8.479z M99.945,11.262h0.566
			l0.961,1.455H102l-0.992-1.495c0.527-0.056,0.936-0.343,0.936-0.959c0-0.688-0.416-1.015-1.184-1.015h-1.344v3.469h0.529V11.262z
			 M99.945,9.727h0.719c0.367,0,0.752,0.056,0.752,0.512c0,0.52-0.424,0.544-0.904,0.544h-0.566V9.727z M30.033,24.378
			c0-5.252-4.368-9.412-9.517-9.412c-5.148,0-9.516,4.16-9.516,9.412s4.368,9.412,9.516,9.412
			C25.665,33.79,30.033,29.63,30.033,24.378z M20.516,31.503c-4.03,0-6.968-3.251-6.968-7.125s2.938-7.124,6.968-7.124
			s6.968,3.25,6.968,7.124S24.546,31.503,20.516,31.503z M32.372,33.479h2.288V15.278h-2.288V33.479z M38.144,33.479h2.288V15.278
			h-2.288V33.479z M49.401,20.738c-3.458,0-6.474,2.652-6.474,6.5s3.016,6.5,6.474,6.5s6.474-2.651,6.474-6.5
			S52.859,20.738,49.401,20.738z M49.401,31.555c-2.366,0-4.082-1.769-4.082-4.316c0-2.548,1.716-4.316,4.082-4.316
			s4.082,1.768,4.082,4.316C53.483,29.786,51.768,31.555,49.401,31.555z M74.129,29.475v-8.477H71.84v7.957
			c0,1.585-0.885,2.6-2.236,2.6c-1.482,0-2.443-0.832-2.443-2.964v-7.593h-2.289v7.593c0,2.132-0.961,2.964-2.443,2.964
			c-1.352,0-2.236-1.015-2.236-2.6v-7.957h-2.287v8.477c0,2.34,1.924,4.264,4.471,4.264c1.404,0,2.809-0.571,3.641-1.768
			c0.832,1.196,2.236,1.768,3.641,1.768C72.203,33.738,74.129,31.814,74.129,29.475z M89.156,27.94l-2.314-0.286
			c-0.469,2.288-1.482,3.9-4.188,3.9c-2.365,0-4.082-1.769-4.082-4.316c0-2.548,1.717-4.316,4.082-4.316
			c1.404,0,2.055,0.416,2.834,1.197l-6.162,3.432l0.938,1.82l8.424-4.681c-1.17-2.418-3.121-3.952-6.033-3.952
			c-3.457,0-6.473,2.652-6.473,6.5s3.016,6.5,6.473,6.5C86.244,33.738,88.895,31.243,89.156,27.94z M103.637,26.927
			c0-3.485-2.807-6.189-6.006-6.189c-1.248,0-2.443,0.26-3.535,0.884v2.393c0.832-0.573,2.105-1.093,3.145-1.093
			c2.471,0,4.109,1.717,4.109,4.29c0,2.548-1.717,4.343-4.16,4.343c-2.184,0-4.004-1.664-4.004-5.096V15.278h-2.289v11.597
			c0,4.108,2.627,6.864,6.293,6.864C101.246,33.738,103.637,30.618,103.637,26.927z M13.755,42.159c0-0.594,0.363-0.914,0.935-0.914
			h2.597v-0.967h-2.453c-1.21,0-2.113,0.682-2.113,1.936c0,2.288,3.873,2.223,3.873,3.795c0,0.672-0.374,1.002-1.287,1.002h-2.64
			v0.968h2.827c1.364,0,2.134-0.825,2.134-2.058C17.627,43.577,13.755,43.577,13.755,42.159z M26.801,40.146
			c-2.178,0-4.026,1.76-4.026,3.982s1.848,3.982,4.026,3.982c2.179,0,4.027-1.76,4.027-3.982S28.98,40.146,26.801,40.146z
			 M26.801,47.143c-1.705,0-2.948-1.376-2.948-3.015s1.243-3.014,2.948-3.014c1.706,0,2.949,1.375,2.949,3.014
			S28.507,47.143,26.801,47.143z M37.438,45.239v-4.961h-1.034v5.214c0,1.452,0.957,2.486,2.442,2.486h1.155v-0.968H39
			C37.922,47.011,37.438,46.427,37.438,45.239z M49.165,45.338c0,1.046-0.528,1.805-1.519,1.805c-0.99,0-1.507-0.759-1.507-1.805
			v-5.06h-1.034v5.17c0,1.496,1.1,2.662,2.541,2.662c1.441,0,2.553-1.166,2.553-2.662v-5.17h-1.034V45.338z M55.357,41.245h1.903
			v6.733h1.035v-6.733h1.902v-0.967h-4.84V41.245z M65.543,47.979h1.033v-7.7h-1.033V47.979z M76.18,40.146
			c-2.178,0-4.025,1.76-4.025,3.982s1.848,3.982,4.025,3.982c2.18,0,4.027-1.76,4.027-3.982S78.359,40.146,76.18,40.146z
			 M76.18,47.143c-1.705,0-2.947-1.376-2.947-3.015s1.242-3.014,2.947-3.014s2.949,1.375,2.949,3.014S77.885,47.143,76.18,47.143z
			 M90.205,46.46h-0.021l-2.475-5.115c-0.387-0.781-0.584-1.133-1.178-1.133c-0.506,0-0.902,0.264-0.902,0.945v6.821h1.033v-6.315
			h0.023l2.738,5.633c0.297,0.595,0.529,0.749,1.023,0.749c0.539,0,0.793-0.319,0.793-0.737v-7.029h-1.035V46.46z M97.773,42.159
			c0-0.594,0.363-0.914,0.934-0.914h2.598v-0.967h-2.453c-1.211,0-2.113,0.682-2.113,1.936c0,2.288,3.873,2.223,3.873,3.795
			c0,0.672-0.375,1.002-1.287,1.002h-2.641v0.968h2.828c1.363,0,2.133-0.825,2.133-2.058
			C101.645,43.577,97.773,43.577,97.773,42.159z"/>
	</g>
</g>
</svg>
